{
	"asset":{
		"generator":"Khronos glTF Blender I/O v3.6.28",
		"version":"2.0"
	},
	"extensionsUsed":[
		"KHR_materials_specular",
		"KHR_materials_ior"
	],
	"scene":0,
	"scenes":[
		{
			"name":"Scene",
			"nodes":[
				0,
				1,
				2
			]
		}
	],
	"nodes":[
		{
			"mesh":0,
			"name":"Island",
			"rotation":[
				0,
				0.4475472569465637,
				0,
				0.8942602872848511
			],
			"scale":[
				1.915574073791504,
				1.9155739545822144,
				1.915574073791504
			],
			"translation":[
				0,
				-0.030839653685688972,
				0
			]
		},
		{
			"mesh":1,
			"name":"PalmTree",
			"rotation":[
				0.0745878517627716,
				-0.8897835612297058,
				0.03761089965701103,
				0.4486730396747589
			],
			"scale":[
				0.12731359899044037,
				0.12731361389160156,
				0.12731359899044037
			],
			"translation":[
				0.4007086753845215,
				0.5283153057098389,
				-0.10877040028572083
			]
		},
		{
			"mesh":2,
			"name":"Radio",
			"rotation":[
				-0.003638324560597539,
				-0.9990428686141968,
				0.04359247907996178,
				0.000159276562044397
			],
			"scale":[
				0.20653755962848663,
				0.20653758943080902,
				0.20653758943080902
			],
			"translation":[
				-0.4065392017364502,
				0.3110186755657196,
				-1.0705318450927734
			]
		}
	],
	"materials":[
		{
			"doubleSided":true,
			"emissiveFactor":[
				0.7912979125976562,
				0.4232672452926636,
				0.1195385605096817
			],
			"name":"Sand",
			"pbrMetallicRoughness":{
				"baseColorFactor":[
					0,
					0,
					0,
					1
				]
			}
		},
		{
			"doubleSided":true,
			"name":"Material.002",
			"pbrMetallicRoughness":{
				"baseColorFactor":[
					0.1946178376674652,
					0.07036003470420837,
					0.024157647043466568,
					1
				],
				"metallicFactor":0,
				"roughnessFactor":0.5
			}
		},
		{
			"doubleSided":true,
			"name":"Material.004",
			"pbrMetallicRoughness":{
				"baseColorFactor":[
					0.004024446941912174,
					0.2917705774307251,
					0.06847824901342392,
					1
				],
				"metallicFactor":0,
				"roughnessFactor":0.5
			}
		},
		{
			"doubleSided":true,
			"name":"Material.003",
			"pbrMetallicRoughness":{
				"baseColorFactor":[
					0.6514057517051697,
					0.19120149314403534,
					0.023153426125645638,
					1
				],
				"metallicFactor":0,
				"roughnessFactor":0.5
			}
		},
		{
			"doubleSided":true,
			"name":"Material.001",
			"pbrMetallicRoughness":{
				"baseColorFactor":[
					0.6514057517051697,
					0.19120149314403534,
					0.023153426125645638,
					1
				],
				"metallicFactor":0,
				"roughnessFactor":0.5
			}
		},
		{
			"doubleSided":true,
			"extensions":{
				"KHR_materials_specular":{
					"specularColorFactor":[
						0,
						0,
						0
					]
				},
				"KHR_materials_ior":{
					"ior":1.4500000476837158
				}
			},
			"name":"Common",
			"pbrMetallicRoughness":{
				"baseColorFactor":[
					0.4097948968410492,
					0.4097948968410492,
					0.4097948968410492,
					1
				],
				"metallicFactor":0,
				"roughnessFactor":0.800000011920929
			}
		},
		{
			"doubleSided":true,
			"extensions":{
				"KHR_materials_specular":{
					"specularColorFactor":[
						0,
						0,
						0
					]
				},
				"KHR_materials_ior":{
					"ior":1.4500000476837158
				}
			},
			"name":"Silver",
			"pbrMetallicRoughness":{
				"baseColorFactor":[
					0.21309205889701843,
					0.21309205889701843,
					0.21309205889701843,
					1
				],
				"metallicFactor":0,
				"roughnessFactor":0.800000011920929
			}
		},
		{
			"doubleSided":true,
			"extensions":{
				"KHR_materials_specular":{
					"specularColorFactor":[
						0,
						0,
						0
					]
				},
				"KHR_materials_ior":{
					"ior":1.4500000476837158
				}
			},
			"name":"Black",
			"pbrMetallicRoughness":{
				"baseColorFactor":[
					0.06150607392191887,
					0.06150607392191887,
					0.06150607392191887,
					1
				],
				"metallicFactor":0,
				"roughnessFactor":0.800000011920929
			}
		},
		{
			"doubleSided":true,
			"extensions":{
				"KHR_materials_specular":{
					"specularColorFactor":[
						0,
						0,
						0
					]
				},
				"KHR_materials_ior":{
					"ior":1.4500000476837158
				}
			},
			"name":"Buttons",
			"pbrMetallicRoughness":{
				"baseColorFactor":[
					0.5870481729507446,
					0.5870481729507446,
					0.5870481729507446,
					1
				],
				"metallicFactor":0,
				"roughnessFactor":0.800000011920929
			}
		},
		{
			"doubleSided":true,
			"extensions":{
				"KHR_materials_specular":{
					"specularColorFactor":[
						0,
						0,
						0
					]
				},
				"KHR_materials_ior":{
					"ior":1.4500000476837158
				}
			},
			"name":"Hard_black",
			"pbrMetallicRoughness":{
				"baseColorFactor":[
					0.027195774018764496,
					0.027195774018764496,
					0.027195774018764496,
					1
				],
				"metallicFactor":0,
				"roughnessFactor":0.800000011920929
			}
		},
		{
			"doubleSided":true,
			"extensions":{
				"KHR_materials_specular":{
					"specularColorFactor":[
						0,
						0,
						0
					]
				},
				"KHR_materials_ior":{
					"ior":1.4500000476837158
				}
			},
			"name":"Frame",
			"pbrMetallicRoughness":{
				"baseColorFactor":[
					0.4668515622615814,
					0.7381973266601562,
					0.8000000715255737,
					1
				],
				"metallicFactor":0,
				"roughnessFactor":0.800000011920929
			}
		}
	],
	"meshes":[
		{
			"name":"Cone.001",
			"primitives":[
				{
					"attributes":{
						"POSITION":0,
						"NORMAL":1,
						"TEXCOORD_0":2
					},
					"indices":3,
					"material":0
				}
			]
		},
		{
			"name":"Cylinder",
			"primitives":[
				{
					"attributes":{
						"POSITION":4,
						"NORMAL":5,
						"TEXCOORD_0":6
					},
					"indices":7,
					"material":1
				},
				{
					"attributes":{
						"POSITION":8,
						"NORMAL":9,
						"TEXCOORD_0":10
					},
					"indices":11,
					"material":2
				},
				{
					"attributes":{
						"POSITION":12,
						"NORMAL":13,
						"TEXCOORD_0":14
					},
					"indices":15,
					"material":3
				},
				{
					"attributes":{
						"POSITION":16,
						"NORMAL":17,
						"TEXCOORD_0":18
					},
					"indices":19,
					"material":4
				}
			]
		},
		{
			"name":"Cube",
			"primitives":[
				{
					"attributes":{
						"POSITION":20,
						"NORMAL":21,
						"TEXCOORD_0":22
					},
					"indices":23,
					"material":5
				},
				{
					"attributes":{
						"POSITION":24,
						"NORMAL":25,
						"TEXCOORD_0":26
					},
					"indices":27,
					"material":6
				},
				{
					"attributes":{
						"POSITION":28,
						"NORMAL":29,
						"TEXCOORD_0":30
					},
					"indices":31,
					"material":7
				},
				{
					"attributes":{
						"POSITION":32,
						"NORMAL":33,
						"TEXCOORD_0":34
					},
					"indices":35,
					"material":8
				},
				{
					"attributes":{
						"POSITION":36,
						"NORMAL":37,
						"TEXCOORD_0":38
					},
					"indices":39,
					"material":9
				},
				{
					"attributes":{
						"POSITION":40,
						"NORMAL":41,
						"TEXCOORD_0":42
					},
					"indices":43,
					"material":10
				}
			]
		}
	],
	"accessors":[
		{
			"bufferView":0,
			"componentType":5126,
			"count":2304,
			"max":[
				0.8352540731430054,
				0.3236290514469147,
				0.8352540731430054
			],
			"min":[
				-0.8352540731430054,
				-0.06479989737272263,
				-0.8352540731430054
			],
			"type":"VEC3"
		},
		{
			"bufferView":1,
			"componentType":5126,
			"count":2304,
			"type":"VEC3"
		},
		{
			"bufferView":2,
			"componentType":5126,
			"count":2304,
			"type":"VEC2"
		},
		{
			"bufferView":3,
			"componentType":5123,
			"count":3456,
			"type":"SCALAR"
		},
		{
			"bufferView":4,
			"componentType":5126,
			"count":400,
			"max":[
				1.082642912864685,
				11.414353370666504,
				1.0039427280426025
			],
			"min":[
				-1.082642912864685,
				-1.0006084442138672,
				-2.7602145671844482
			],
			"type":"VEC3"
		},
		{
			"bufferView":5,
			"componentType":5126,
			"count":400,
			"type":"VEC3"
		},
		{
			"bufferView":6,
			"componentType":5126,
			"count":400,
			"type":"VEC2"
		},
		{
			"bufferView":7,
			"componentType":5123,
			"count":612,
			"type":"SCALAR"
		},
		{
			"bufferView":8,
			"componentType":5126,
			"count":2534,
			"max":[
				7.0869140625,
				12.732138633728027,
				7.207545280456543
			],
			"min":[
				-7.274118423461914,
				7.944422721862793,
				-7.108701705932617
			],
			"type":"VEC3"
		},
		{
			"bufferView":9,
			"componentType":5126,
			"count":2534,
			"type":"VEC3"
		},
		{
			"bufferView":10,
			"componentType":5126,
			"count":2534,
			"type":"VEC2"
		},
		{
			"bufferView":11,
			"componentType":5123,
			"count":3936,
			"type":"SCALAR"
		},
		{
			"bufferView":12,
			"componentType":5126,
			"count":360,
			"max":[
				0.7961448431015015,
				10.599153518676758,
				1.7000447511672974
			],
			"min":[
				-0.8106896877288818,
				9.0001220703125,
				0.10144215822219849
			],
			"type":"VEC3"
		},
		{
			"bufferView":13,
			"componentType":5126,
			"count":360,
			"type":"VEC3"
		},
		{
			"bufferView":14,
			"componentType":5126,
			"count":360,
			"type":"VEC2"
		},
		{
			"bufferView":15,
			"componentType":5123,
			"count":504,
			"type":"SCALAR"
		},
		{
			"bufferView":16,
			"componentType":5126,
			"count":360,
			"max":[
				-0.6302964091300964,
				10.640740394592285,
				0.731106698513031
			],
			"min":[
				-2.19256591796875,
				9.039093971252441,
				-0.8742808103561401
			],
			"type":"VEC3"
		},
		{
			"bufferView":17,
			"componentType":5126,
			"count":360,
			"type":"VEC3"
		},
		{
			"bufferView":18,
			"componentType":5126,
			"count":360,
			"type":"VEC2"
		},
		{
			"bufferView":19,
			"componentType":5123,
			"count":504,
			"type":"SCALAR"
		},
		{
			"bufferView":20,
			"componentType":5126,
			"count":425,
			"max":[
				0.5378274917602539,
				0.5475724339485168,
				0.2244337499141693
			],
			"min":[
				-0.5378274917602539,
				-0.34341830015182495,
				-0.21183212101459503
			],
			"type":"VEC3"
		},
		{
			"bufferView":21,
			"componentType":5126,
			"count":425,
			"type":"VEC3"
		},
		{
			"bufferView":22,
			"componentType":5126,
			"count":425,
			"type":"VEC2"
		},
		{
			"bufferView":23,
			"componentType":5123,
			"count":954,
			"type":"SCALAR"
		},
		{
			"bufferView":24,
			"componentType":5126,
			"count":136,
			"max":[
				-0.42700958251953125,
				0.6816123127937317,
				0.17352823913097382
			],
			"min":[
				-0.4757367968559265,
				0.34341832995414734,
				0.13009081780910492
			],
			"type":"VEC3"
		},
		{
			"bufferView":25,
			"componentType":5126,
			"count":136,
			"type":"VEC3"
		},
		{
			"bufferView":26,
			"componentType":5126,
			"count":136,
			"type":"VEC2"
		},
		{
			"bufferView":27,
			"componentType":5123,
			"count":210,
			"type":"SCALAR"
		},
		{
			"bufferView":28,
			"componentType":5126,
			"count":437,
			"max":[
				0.46910619735717773,
				0.3022133708000183,
				0.23341409862041473
			],
			"min":[
				-0.4732964336872101,
				-0.3022133708000183,
				0.20306052267551422
			],
			"type":"VEC3"
		},
		{
			"bufferView":29,
			"componentType":5126,
			"count":437,
			"type":"VEC3"
		},
		{
			"bufferView":30,
			"componentType":5126,
			"count":437,
			"type":"VEC2"
		},
		{
			"bufferView":31,
			"componentType":5123,
			"count":1176,
			"type":"SCALAR"
		},
		{
			"bufferView":32,
			"componentType":5126,
			"count":160,
			"max":[
				0.4833892285823822,
				0.3086579144001007,
				0.22963401675224304
			],
			"min":[
				0.020631367340683937,
				0.12486015260219574,
				0.21183212101459503
			],
			"type":"VEC3"
		},
		{
			"bufferView":33,
			"componentType":5126,
			"count":160,
			"type":"VEC3"
		},
		{
			"bufferView":34,
			"componentType":5126,
			"count":160,
			"type":"VEC2"
		},
		{
			"bufferView":35,
			"componentType":5123,
			"count":240,
			"type":"SCALAR"
		},
		{
			"bufferView":36,
			"componentType":5126,
			"count":640,
			"max":[
				-0.04636472091078758,
				0.25646737217903137,
				0.21183212101459503
			],
			"min":[
				-0.4576559066772461,
				-0.25646737217903137,
				0.2011995017528534
			],
			"type":"VEC3"
		},
		{
			"bufferView":37,
			"componentType":5126,
			"count":640,
			"type":"VEC3"
		},
		{
			"bufferView":38,
			"componentType":5126,
			"count":640,
			"type":"VEC2"
		},
		{
			"bufferView":39,
			"componentType":5123,
			"count":960,
			"type":"SCALAR"
		},
		{
			"bufferView":40,
			"componentType":5126,
			"count":312,
			"max":[
				0,
				0.3218316435813904,
				0.2244337499141693
			],
			"min":[
				-0.504020631313324,
				-0.3218316435813904,
				0.21183212101459503
			],
			"type":"VEC3"
		},
		{
			"bufferView":41,
			"componentType":5126,
			"count":312,
			"type":"VEC3"
		},
		{
			"bufferView":42,
			"componentType":5126,
			"count":312,
			"type":"VEC2"
		},
		{
			"bufferView":43,
			"componentType":5123,
			"count":678,
			"type":"SCALAR"
		}
	],
	"bufferViews":[
		{
			"buffer":0,
			"byteLength":27648,
			"byteOffset":0,
			"target":34962
		},
		{
			"buffer":0,
			"byteLength":27648,
			"byteOffset":27648,
			"target":34962
		},
		{
			"buffer":0,
			"byteLength":18432,
			"byteOffset":55296,
			"target":34962
		},
		{
			"buffer":0,
			"byteLength":6912,
			"byteOffset":73728,
			"target":34963
		},
		{
			"buffer":0,
			"byteLength":4800,
			"byteOffset":80640,
			"target":34962
		},
		{
			"buffer":0,
			"byteLength":4800,
			"byteOffset":85440,
			"target":34962
		},
		{
			"buffer":0,
			"byteLength":3200,
			"byteOffset":90240,
			"target":34962
		},
		{
			"buffer":0,
			"byteLength":1224,
			"byteOffset":93440,
			"target":34963
		},
		{
			"buffer":0,
			"byteLength":30408,
			"byteOffset":94664,
			"target":34962
		},
		{
			"buffer":0,
			"byteLength":30408,
			"byteOffset":125072,
			"target":34962
		},
		{
			"buffer":0,
			"byteLength":20272,
			"byteOffset":155480,
			"target":34962
		},
		{
			"buffer":0,
			"byteLength":7872,
			"byteOffset":175752,
			"target":34963
		},
		{
			"buffer":0,
			"byteLength":4320,
			"byteOffset":183624,
			"target":34962
		},
		{
			"buffer":0,
			"byteLength":4320,
			"byteOffset":187944,
			"target":34962
		},
		{
			"buffer":0,
			"byteLength":2880,
			"byteOffset":192264,
			"target":34962
		},
		{
			"buffer":0,
			"byteLength":1008,
			"byteOffset":195144,
			"target":34963
		},
		{
			"buffer":0,
			"byteLength":4320,
			"byteOffset":196152,
			"target":34962
		},
		{
			"buffer":0,
			"byteLength":4320,
			"byteOffset":200472,
			"target":34962
		},
		{
			"buffer":0,
			"byteLength":2880,
			"byteOffset":204792,
			"target":34962
		},
		{
			"buffer":0,
			"byteLength":1008,
			"byteOffset":207672,
			"target":34963
		},
		{
			"buffer":0,
			"byteLength":5100,
			"byteOffset":208680,
			"target":34962
		},
		{
			"buffer":0,
			"byteLength":5100,
			"byteOffset":213780,
			"target":34962
		},
		{
			"buffer":0,
			"byteLength":3400,
			"byteOffset":218880,
			"target":34962
		},
		{
			"buffer":0,
			"byteLength":1908,
			"byteOffset":222280,
			"target":34963
		},
		{
			"buffer":0,
			"byteLength":1632,
			"byteOffset":224188,
			"target":34962
		},
		{
			"buffer":0,
			"byteLength":1632,
			"byteOffset":225820,
			"target":34962
		},
		{
			"buffer":0,
			"byteLength":1088,
			"byteOffset":227452,
			"target":34962
		},
		{
			"buffer":0,
			"byteLength":420,
			"byteOffset":228540,
			"target":34963
		},
		{
			"buffer":0,
			"byteLength":5244,
			"byteOffset":228960,
			"target":34962
		},
		{
			"buffer":0,
			"byteLength":5244,
			"byteOffset":234204,
			"target":34962
		},
		{
			"buffer":0,
			"byteLength":3496,
			"byteOffset":239448,
			"target":34962
		},
		{
			"buffer":0,
			"byteLength":2352,
			"byteOffset":242944,
			"target":34963
		},
		{
			"buffer":0,
			"byteLength":1920,
			"byteOffset":245296,
			"target":34962
		},
		{
			"buffer":0,
			"byteLength":1920,
			"byteOffset":247216,
			"target":34962
		},
		{
			"buffer":0,
			"byteLength":1280,
			"byteOffset":249136,
			"target":34962
		},
		{
			"buffer":0,
			"byteLength":480,
			"byteOffset":250416,
			"target":34963
		},
		{
			"buffer":0,
			"byteLength":7680,
			"byteOffset":250896,
			"target":34962
		},
		{
			"buffer":0,
			"byteLength":7680,
			"byteOffset":258576,
			"target":34962
		},
		{
			"buffer":0,
			"byteLength":5120,
			"byteOffset":266256,
			"target":34962
		},
		{
			"buffer":0,
			"byteLength":1920,
			"byteOffset":271376,
			"target":34963
		},
		{
			"buffer":0,
			"byteLength":3744,
			"byteOffset":273296,
			"target":34962
		},
		{
			"buffer":0,
			"byteLength":3744,
			"byteOffset":277040,
			"target":34962
		},
		{
			"buffer":0,
			"byteLength":2496,
			"byteOffset":280784,
			"target":34962
		},
		{
			"buffer":0,
			"byteLength":1356,
			"byteOffset":283280,
			"target":34963
		}
	],
	"buffers":[
		{
			"byteLength":284636,
			"uri":"data:application/octet-stream;base64,"
		}
	]
}
