{
	"asset":{
		"generator":"Khronos glTF Blender I/O v3.6.28",
		"version":"2.0"
	},
	"scene":0,
	"scenes":[
		{
			"name":"Scene",
			"nodes":[
				6
			]
		}
	],
	"nodes":[
		{
			"mesh":0,
			"name":"BaseStructure",
			"rotation":[
				0,
				0.7111612558364868,
				0,
				0.7030289173126221
			],
			"scale":[
				0.010000000707805157,
				0.010000001639127731,
				0.009999999776482582
			],
			"translation":[
				0,
				3.814697265625e-06,
				-3.814697265625e-06
			]
		},
		{
			"mesh":1,
			"name":"FlatStructure",
			"rotation":[
				0,
				0.7111612558364868,
				0,
				0.7030289173126221
			],
			"scale":[
				0.010000000707805157,
				0.010000001639127731,
				0.009999999776482582
			],
			"translation":[
				0,
				3.814697265625e-06,
				-3.814697265625e-06
			]
		},
		{
			"mesh":2,
			"name":"Polish",
			"rotation":[
				0,
				0.7111612558364868,
				0,
				0.7030289173126221
			],
			"scale":[
				0.010000000707805157,
				0.010000001639127731,
				0.009999999776482582
			],
			"translation":[
				0,
				3.814697265625e-06,
				-3.814697265625e-06
			]
		},
		{
			"mesh":3,
			"name":"SmallFlatStructure",
			"rotation":[
				0,
				0.7111612558364868,
				0,
				0.7030289173126221
			],
			"scale":[
				0.010000000707805157,
				0.010000001639127731,
				0.009999999776482582
			],
			"translation":[
				0,
				3.814697265625e-06,
				-3.814697265625e-06
			]
		},
		{
			"mesh":4,
			"name":"WindowDividers",
			"rotation":[
				0,
				0.7111612558364868,
				0,
				0.7030289173126221
			],
			"scale":[
				0.010000000707805157,
				0.010000001639127731,
				0.009999999776482582
			],
			"translation":[
				0,
				3.814697265625e-06,
				-3.814697265625e-06
			]
		},
		{
			"mesh":5,
			"name":"Windows",
			"rotation":[
				0,
				0.7111612558364868,
				0,
				0.7030289173126221
			],
			"scale":[
				0.010000000707805157,
				0.010000001639127731,
				0.009999999776482582
			],
			"translation":[
				0,
				3.814697265625e-06,
				-3.814697265625e-06
			]
		},
		{
			"children":[
				0,
				1,
				2,
				3,
				4,
				5
			],
			"name":"Geisel",
			"rotation":[
				0,
				-0.3274476230144501,
				0,
				0.944869339466095
			],
			"scale":[
				0.03742193803191185,
				0.03742193803191185,
				0.03742193803191185
			],
			"translation":[
				2.854041814804077,
				1.5030837059020996,
				-2.0834505558013916
			]
		}
	],
	"meshes":[
		{
			"name":"Geisel MKII_Smooth - White_Geisel MKII_0.001",
			"primitives":[
				{
					"attributes":{
						"POSITION":0,
						"NORMAL":1,
						"TEXCOORD_0":2
					},
					"indices":3
				}
			]
		},
		{
			"name":"Geisel MKII_Particle Board_Geisel MKII_0.001",
			"primitives":[
				{
					"attributes":{
						"POSITION":4,
						"NORMAL":5,
						"TEXCOORD_0":6
					},
					"indices":7
				}
			]
		},
		{
			"name":"Geisel MKII_Smooth Precast Structural_Geisel MKII_0.001",
			"primitives":[
				{
					"attributes":{
						"POSITION":8,
						"NORMAL":9,
						"TEXCOORD_0":10
					},
					"indices":11
				}
			]
		},
		{
			"name":"Geisel MKII_White_Geisel MKII_0.001",
			"primitives":[
				{
					"attributes":{
						"POSITION":12,
						"NORMAL":13,
						"TEXCOORD_0":14
					},
					"indices":15
				}
			]
		},
		{
			"name":"Geisel MKII_Dark Gray_Geisel MKII_0.001",
			"primitives":[
				{
					"attributes":{
						"POSITION":16,
						"NORMAL":17,
						"TEXCOORD_0":18
					},
					"indices":19
				}
			]
		},
		{
			"name":"Geisel MKII_Chrome - Polished Black_Geisel MKII_0.001",
			"primitives":[
				{
					"attributes":{
						"POSITION":20,
						"NORMAL":21,
						"TEXCOORD_0":22
					},
					"indices":23
				}
			]
		}
	],
	"accessors":[
		{
			"bufferView":0,
			"componentType":5126,
			"count":20380,
			"max":[
				3337.540283203125,
				1574.7999267578125,
				3337.540283203125
			],
			"min":[
				-3337.540283203125,
				-1409.699951171875,
				-3337.540283203125
			],
			"type":"VEC3"
		},
		{
			"bufferView":1,
			"componentType":5126,
			"count":20380,
			"type":"VEC3"
		},
		{
			"bufferView":2,
			"componentType":5126,
			"count":20380,
			"type":"VEC2"
		},
		{
			"bufferView":3,
			"componentType":5123,
			"count":47667,
			"type":"SCALAR"
		},
		{
			"bufferView":4,
			"componentType":5126,
			"count":185,
			"max":[
				3162.300048828125,
				1549.4000244140625,
				3162.300048828125
			],
			"min":[
				-3162.300048828125,
				482.5999755859375,
				-3162.300048828125
			],
			"type":"VEC3"
		},
		{
			"bufferView":5,
			"componentType":5126,
			"count":185,
			"type":"VEC3"
		},
		{
			"bufferView":6,
			"componentType":5126,
			"count":185,
			"type":"VEC2"
		},
		{
			"bufferView":7,
			"componentType":5123,
			"count":453,
			"type":"SCALAR"
		},
		{
			"bufferView":8,
			"componentType":5126,
			"count":40,
			"max":[
				1875.4844970703125,
				1320.800048828125,
				1873.8828125
			],
			"min":[
				-1875.4844970703125,
				1320.800048828125,
				-1873.8828125
			],
			"type":"VEC3"
		},
		{
			"bufferView":9,
			"componentType":5126,
			"count":40,
			"type":"VEC3"
		},
		{
			"bufferView":10,
			"componentType":5126,
			"count":40,
			"type":"VEC2"
		},
		{
			"bufferView":11,
			"componentType":5123,
			"count":120,
			"type":"SCALAR"
		},
		{
			"bufferView":12,
			"componentType":5126,
			"count":312,
			"max":[
				3276.60009765625,
				101.5999984741211,
				3276.60009765625
			],
			"min":[
				-3276.60009765625,
				-711.2000122070312,
				-3276.60009765625
			],
			"type":"VEC3"
		},
		{
			"bufferView":13,
			"componentType":5126,
			"count":312,
			"type":"VEC3"
		},
		{
			"bufferView":14,
			"componentType":5126,
			"count":312,
			"type":"VEC2"
		},
		{
			"bufferView":15,
			"componentType":5123,
			"count":936,
			"type":"SCALAR"
		},
		{
			"bufferView":16,
			"componentType":5126,
			"count":7992,
			"max":[
				3165.474853515625,
				1206.5,
				3165.474853515625
			],
			"min":[
				-3165.474853515625,
				-698.5,
				-3165.474853515625
			],
			"type":"VEC3"
		},
		{
			"bufferView":17,
			"componentType":5126,
			"count":7992,
			"type":"VEC3"
		},
		{
			"bufferView":18,
			"componentType":5126,
			"count":7992,
			"type":"VEC2"
		},
		{
			"bufferView":19,
			"componentType":5123,
			"count":12054,
			"type":"SCALAR"
		},
		{
			"bufferView":20,
			"componentType":5126,
			"count":2640,
			"max":[
				3162.300048828125,
				1206.5,
				3162.300048828125
			],
			"min":[
				-3162.300048828125,
				-698.5,
				-3162.300048828125
			],
			"type":"VEC3"
		},
		{
			"bufferView":21,
			"componentType":5126,
			"count":2640,
			"type":"VEC3"
		},
		{
			"bufferView":22,
			"componentType":5126,
			"count":2640,
			"type":"VEC2"
		},
		{
			"bufferView":23,
			"componentType":5123,
			"count":3966,
			"type":"SCALAR"
		}
	],
	"bufferViews":[
		{
			"buffer":0,
			"byteLength":244560,
			"byteOffset":0,
			"target":34962
		},
		{
			"buffer":0,
			"byteLength":244560,
			"byteOffset":244560,
			"target":34962
		},
		{
			"buffer":0,
			"byteLength":163040,
			"byteOffset":489120,
			"target":34962
		},
		{
			"buffer":0,
			"byteLength":95334,
			"byteOffset":652160,
			"target":34963
		},
		{
			"buffer":0,
			"byteLength":2220,
			"byteOffset":747496,
			"target":34962
		},
		{
			"buffer":0,
			"byteLength":2220,
			"byteOffset":749716,
			"target":34962
		},
		{
			"buffer":0,
			"byteLength":1480,
			"byteOffset":751936,
			"target":34962
		},
		{
			"buffer":0,
			"byteLength":906,
			"byteOffset":753416,
			"target":34963
		},
		{
			"buffer":0,
			"byteLength":480,
			"byteOffset":754324,
			"target":34962
		},
		{
			"buffer":0,
			"byteLength":480,
			"byteOffset":754804,
			"target":34962
		},
		{
			"buffer":0,
			"byteLength":320,
			"byteOffset":755284,
			"target":34962
		},
		{
			"buffer":0,
			"byteLength":240,
			"byteOffset":755604,
			"target":34963
		},
		{
			"buffer":0,
			"byteLength":3744,
			"byteOffset":755844,
			"target":34962
		},
		{
			"buffer":0,
			"byteLength":3744,
			"byteOffset":759588,
			"target":34962
		},
		{
			"buffer":0,
			"byteLength":2496,
			"byteOffset":763332,
			"target":34962
		},
		{
			"buffer":0,
			"byteLength":1872,
			"byteOffset":765828,
			"target":34963
		},
		{
			"buffer":0,
			"byteLength":95904,
			"byteOffset":767700,
			"target":34962
		},
		{
			"buffer":0,
			"byteLength":95904,
			"byteOffset":863604,
			"target":34962
		},
		{
			"buffer":0,
			"byteLength":63936,
			"byteOffset":959508,
			"target":34962
		},
		{
			"buffer":0,
			"byteLength":24108,
			"byteOffset":1023444,
			"target":34963
		},
		{
			"buffer":0,
			"byteLength":31680,
			"byteOffset":1047552,
			"target":34962
		},
		{
			"buffer":0,
			"byteLength":31680,
			"byteOffset":1079232,
			"target":34962
		},
		{
			"buffer":0,
			"byteLength":21120,
			"byteOffset":1110912,
			"target":34962
		},
		{
			"buffer":0,
			"byteLength":7932,
			"byteOffset":1132032,
			"target":34963
		}
	],
	"buffers":[
		{
			"byteLength":1139964,
			"uri":"data:application/octet-stream;base64,"
		}
	]
}
